<svg width="160" height="160" viewBox="0 0 160 160" fill="none" xmlns="http://www.w3.org/2000/svg">
<rect width="160" height="160" rx="80" fill="#060014"/>
<mask id="mask0_9_114" style="mask-type:luminance" maskUnits="userSpaceOnUse" x="11" y="43" width="138" height="74">
<path d="M149 43H11V117H149V43Z" fill="white"/>
</mask>
<g mask="url(#mask0_9_114)">
<path d="M50.5541 106.833C42.6433 94.8333 18.9108 52.3333 18.9108 52.3333C18.9108 52.3333 35.6115 44.8333 40.0064 52.3333C44.4013 59.8333 58.2208 85.5497 69.8917 106.833C69.8917 106.833 55.0852 113.707 50.5541 106.833Z" fill="#6621FD" stroke="#6621FD"/>
<path d="M91.8662 106.833C83.9554 94.8333 60.2229 52.3333 60.2229 52.3333C60.2229 52.3333 76.9235 44.8333 81.3184 52.3333C85.7133 59.8333 99.5327 85.5497 111.204 106.833C111.204 106.833 96.3973 113.707 91.8662 106.833Z" fill="#6621FD" stroke="#6621FD"/>
<mask id="mask1_9_114" style="mask-type:alpha" maskUnits="userSpaceOnUse" x="81" y="5" width="52" height="61">
<path d="M100.656 8.0548C108.567 20.0548 132.299 62.5548 132.299 62.5548C132.299 62.5548 115.599 70.0548 111.204 62.5548C106.809 55.0548 92.9894 29.3383 81.3185 8.0548C81.3185 8.0548 96.125 1.1815 100.656 8.0548Z" fill="#6621FD"/>
</mask>
<g mask="url(#mask1_9_114)">
<path d="M135.815 106.833C127.904 94.8334 104.172 52.3333 104.172 52.3333C104.172 52.3333 120.873 44.8333 125.268 52.3333C129.662 59.8334 143.482 85.5498 155.153 106.833C155.153 106.833 140.346 113.707 135.815 106.833Z" fill="#17CF97" stroke="#17CF97"/>
</g>
</g>
</svg>
